<?xml version="1.0" encoding="UTF-8" standalone="no"?>
<!DOCTYPE svg PUBLIC "-//W3C//DTD SVG 1.1//EN"
 "http://www.w3.org/Graphics/SVG/1.1/DTD/svg11.dtd">
<!-- Generated by graphviz version 2.46.1 (20210213.1702)
 -->
<!-- Title: G Pages: 1 -->
<svg width="366pt" height="332pt"
 viewBox="0.00 0.00 366.30 332.00" xmlns="http://www.w3.org/2000/svg" xmlns:xlink="http://www.w3.org/1999/xlink">
<g id="graph0" class="graph" transform="scale(1 1) rotate(0) translate(4 328)">
<title>G</title>
<polygon fill="white" stroke="transparent" points="-4,4 -4,-328 362.3,-328 362.3,4 -4,4"/>
<!-- node0 -->
<g id="node1" class="node">
<title>node0</title>
<ellipse fill="none" stroke="black" cx="157.3" cy="-306" rx="38.99" ry="18"/>
<text text-anchor="middle" x="157.3" y="-302.3" font-family="Times New Roman,serif" font-size="14.00">INICIO</text>
</g>
<!-- node00 -->
<g id="node2" class="node">
<title>node00</title>
<ellipse fill="none" stroke="black" cx="157.3" cy="-234" rx="27.9" ry="18"/>
<text text-anchor="middle" x="157.3" y="-230.3" font-family="Times New Roman,serif" font-size="14.00">Print</text>
</g>
<!-- node0&#45;&gt;node00 -->
<g id="edge1" class="edge">
<title>node0&#45;&gt;node00</title>
<path fill="none" stroke="black" d="M157.3,-287.7C157.3,-279.98 157.3,-270.71 157.3,-262.11"/>
<polygon fill="black" stroke="black" points="160.8,-262.1 157.3,-252.1 153.8,-262.1 160.8,-262.1"/>
</g>
<!-- node000 -->
<g id="node3" class="node">
<title>node000</title>
<ellipse fill="none" stroke="black" cx="27.3" cy="-162" rx="27.1" ry="18"/>
<text text-anchor="middle" x="27.3" y="-158.3" font-family="Times New Roman,serif" font-size="14.00">print</text>
</g>
<!-- node00&#45;&gt;node000 -->
<g id="edge2" class="edge">
<title>node00&#45;&gt;node000</title>
<path fill="none" stroke="black" d="M136.41,-221.75C114.87,-210.15 81.08,-191.96 56.81,-178.89"/>
<polygon fill="black" stroke="black" points="58.17,-175.65 47.7,-173.99 54.85,-181.81 58.17,-175.65"/>
</g>
<!-- node001 -->
<g id="node4" class="node">
<title>node001</title>
<ellipse fill="none" stroke="black" cx="99.3" cy="-162" rx="27" ry="18"/>
<text text-anchor="middle" x="99.3" y="-158.3" font-family="Times New Roman,serif" font-size="14.00">(</text>
</g>
<!-- node00&#45;&gt;node001 -->
<g id="edge3" class="edge">
<title>node00&#45;&gt;node001</title>
<path fill="none" stroke="black" d="M144.71,-217.81C137.04,-208.55 127.07,-196.52 118.43,-186.09"/>
<polygon fill="black" stroke="black" points="120.93,-183.63 111.86,-178.16 115.54,-188.09 120.93,-183.63"/>
</g>
<!-- node002 -->
<g id="node5" class="node">
<title>node002</title>
<ellipse fill="none" stroke="black" cx="215.3" cy="-162" rx="71.49" ry="18"/>
<text text-anchor="middle" x="215.3" y="-158.3" font-family="Times New Roman,serif" font-size="14.00">EXPRESIONES</text>
</g>
<!-- node00&#45;&gt;node002 -->
<g id="edge4" class="edge">
<title>node00&#45;&gt;node002</title>
<path fill="none" stroke="black" d="M169.88,-217.81C177.07,-209.14 186.25,-198.05 194.48,-188.12"/>
<polygon fill="black" stroke="black" points="197.42,-190.06 201.11,-180.13 192.03,-185.59 197.42,-190.06"/>
</g>
<!-- node003 -->
<g id="node8" class="node">
<title>node003</title>
<ellipse fill="none" stroke="black" cx="331.3" cy="-162" rx="27" ry="18"/>
<text text-anchor="middle" x="331.3" y="-158.3" font-family="Times New Roman,serif" font-size="14.00">)</text>
</g>
<!-- node00&#45;&gt;node003 -->
<g id="edge7" class="edge">
<title>node00&#45;&gt;node003</title>
<path fill="none" stroke="black" d="M181.2,-224.43C208.89,-214.37 255.77,-196.9 295.3,-180 297.11,-179.23 298.96,-178.41 300.83,-177.58"/>
<polygon fill="black" stroke="black" points="302.46,-180.68 310.1,-173.33 299.55,-174.32 302.46,-180.68"/>
</g>
<!-- node0020 -->
<g id="node6" class="node">
<title>node0020</title>
<ellipse fill="none" stroke="black" cx="215.3" cy="-90" rx="43.59" ry="18"/>
<text text-anchor="middle" x="215.3" y="-86.3" font-family="Times New Roman,serif" font-size="14.00">Primitivo</text>
</g>
<!-- node002&#45;&gt;node0020 -->
<g id="edge5" class="edge">
<title>node002&#45;&gt;node0020</title>
<path fill="none" stroke="black" d="M215.3,-143.7C215.3,-135.98 215.3,-126.71 215.3,-118.11"/>
<polygon fill="black" stroke="black" points="218.8,-118.1 215.3,-108.1 211.8,-118.1 218.8,-118.1"/>
</g>
<!-- node00200 -->
<g id="node7" class="node">
<title>node00200</title>
<ellipse fill="none" stroke="black" cx="215.3" cy="-18" rx="81.79" ry="18"/>
<text text-anchor="middle" x="215.3" y="-14.3" font-family="Times New Roman,serif" font-size="14.00">Bienvenido a JOLC</text>
</g>
<!-- node0020&#45;&gt;node00200 -->
<g id="edge6" class="edge">
<title>node0020&#45;&gt;node00200</title>
<path fill="none" stroke="black" d="M215.3,-71.7C215.3,-63.98 215.3,-54.71 215.3,-46.11"/>
<polygon fill="black" stroke="black" points="218.8,-46.1 215.3,-36.1 211.8,-46.1 218.8,-46.1"/>
</g>
</g>
</svg>
