<?xml version="1.0" encoding="UTF-8" standalone="no"?>
<!DOCTYPE svg PUBLIC "-//W3C//DTD SVG 1.1//EN"
 "http://www.w3.org/Graphics/SVG/1.1/DTD/svg11.dtd">
<!-- Generated by graphviz version 2.46.1 (20210213.1702)
 -->
<!-- Title: G Pages: 1 -->
<svg width="312pt" height="332pt"
 viewBox="0.00 0.00 311.55 332.00" xmlns="http://www.w3.org/2000/svg" xmlns:xlink="http://www.w3.org/1999/xlink">
<g id="graph0" class="graph" transform="scale(1 1) rotate(0) translate(4 328)">
<title>G</title>
<polygon fill="white" stroke="transparent" points="-4,4 -4,-328 307.55,-328 307.55,4 -4,4"/>
<!-- node0 -->
<g id="node1" class="node">
<title>node0</title>
<ellipse fill="none" stroke="black" cx="99" cy="-306" rx="38.99" ry="18"/>
<text text-anchor="middle" x="99" y="-302.3" font-family="Times New Roman,serif" font-size="14.00">INICIO</text>
</g>
<!-- node00 -->
<g id="node2" class="node">
<title>node00</title>
<ellipse fill="none" stroke="black" cx="99" cy="-234" rx="67.69" ry="18"/>
<text text-anchor="middle" x="99" y="-230.3" font-family="Times New Roman,serif" font-size="14.00">ASIGNACION</text>
</g>
<!-- node0&#45;&gt;node00 -->
<g id="edge1" class="edge">
<title>node0&#45;&gt;node00</title>
<path fill="none" stroke="black" d="M99,-287.7C99,-279.98 99,-270.71 99,-262.11"/>
<polygon fill="black" stroke="black" points="102.5,-262.1 99,-252.1 95.5,-262.1 102.5,-262.1"/>
</g>
<!-- node000 -->
<g id="node3" class="node">
<title>node000</title>
<ellipse fill="none" stroke="black" cx="27" cy="-162" rx="27" ry="18"/>
<text text-anchor="middle" x="27" y="-158.3" font-family="Times New Roman,serif" font-size="14.00">hola</text>
</g>
<!-- node00&#45;&gt;node000 -->
<g id="edge2" class="edge">
<title>node00&#45;&gt;node000</title>
<path fill="none" stroke="black" d="M81.94,-216.41C72.17,-206.91 59.79,-194.88 49.26,-184.65"/>
<polygon fill="black" stroke="black" points="51.6,-182.03 41.99,-177.57 46.72,-187.05 51.6,-182.03"/>
</g>
<!-- node001 -->
<g id="node4" class="node">
<title>node001</title>
<ellipse fill="none" stroke="black" cx="99" cy="-162" rx="27" ry="18"/>
<text text-anchor="middle" x="99" y="-158.3" font-family="Times New Roman,serif" font-size="14.00"> = </text>
</g>
<!-- node00&#45;&gt;node001 -->
<g id="edge3" class="edge">
<title>node00&#45;&gt;node001</title>
<path fill="none" stroke="black" d="M99,-215.7C99,-207.98 99,-198.71 99,-190.11"/>
<polygon fill="black" stroke="black" points="102.5,-190.1 99,-180.1 95.5,-190.1 102.5,-190.1"/>
</g>
<!-- node002 -->
<g id="node5" class="node">
<title>node002</title>
<ellipse fill="none" stroke="black" cx="171" cy="-162" rx="27" ry="18"/>
<text text-anchor="middle" x="171" y="-158.3" font-family="Times New Roman,serif" font-size="14.00">Exp</text>
</g>
<!-- node00&#45;&gt;node002 -->
<g id="edge4" class="edge">
<title>node00&#45;&gt;node002</title>
<path fill="none" stroke="black" d="M116.06,-216.41C125.83,-206.91 138.21,-194.88 148.74,-184.65"/>
<polygon fill="black" stroke="black" points="151.28,-187.05 156.01,-177.57 146.4,-182.03 151.28,-187.05"/>
</g>
<!-- node0020 -->
<g id="node6" class="node">
<title>node0020</title>
<ellipse fill="none" stroke="black" cx="82" cy="-90" rx="43.59" ry="18"/>
<text text-anchor="middle" x="82" y="-86.3" font-family="Times New Roman,serif" font-size="14.00">Primitivo</text>
</g>
<!-- node002&#45;&gt;node0020 -->
<g id="edge5" class="edge">
<title>node002&#45;&gt;node0020</title>
<path fill="none" stroke="black" d="M154.26,-147.83C141.72,-137.97 124.27,-124.25 109.67,-112.76"/>
<polygon fill="black" stroke="black" points="111.48,-109.73 101.45,-106.3 107.15,-115.23 111.48,-109.73"/>
</g>
<!-- node0021 -->
<g id="node8" class="node">
<title>node0021</title>
<ellipse fill="none" stroke="black" cx="171" cy="-90" rx="27" ry="18"/>
<text text-anchor="middle" x="171" y="-86.3" font-family="Times New Roman,serif" font-size="14.00">+</text>
</g>
<!-- node002&#45;&gt;node0021 -->
<g id="edge7" class="edge">
<title>node002&#45;&gt;node0021</title>
<path fill="none" stroke="black" d="M171,-143.7C171,-135.98 171,-126.71 171,-118.11"/>
<polygon fill="black" stroke="black" points="174.5,-118.1 171,-108.1 167.5,-118.1 174.5,-118.1"/>
</g>
<!-- node0022 -->
<g id="node9" class="node">
<title>node0022</title>
<ellipse fill="none" stroke="black" cx="260" cy="-90" rx="43.59" ry="18"/>
<text text-anchor="middle" x="260" y="-86.3" font-family="Times New Roman,serif" font-size="14.00">Primitivo</text>
</g>
<!-- node002&#45;&gt;node0022 -->
<g id="edge8" class="edge">
<title>node002&#45;&gt;node0022</title>
<path fill="none" stroke="black" d="M187.74,-147.83C200.28,-137.97 217.73,-124.25 232.33,-112.76"/>
<polygon fill="black" stroke="black" points="234.85,-115.23 240.55,-106.3 230.52,-109.73 234.85,-115.23"/>
</g>
<!-- node00200 -->
<g id="node7" class="node">
<title>node00200</title>
<ellipse fill="none" stroke="black" cx="82" cy="-18" rx="27" ry="18"/>
<text text-anchor="middle" x="82" y="-14.3" font-family="Times New Roman,serif" font-size="14.00">hola</text>
</g>
<!-- node0020&#45;&gt;node00200 -->
<g id="edge6" class="edge">
<title>node0020&#45;&gt;node00200</title>
<path fill="none" stroke="black" d="M82,-71.7C82,-63.98 82,-54.71 82,-46.11"/>
<polygon fill="black" stroke="black" points="85.5,-46.1 82,-36.1 78.5,-46.1 85.5,-46.1"/>
</g>
<!-- node00220 -->
<g id="node10" class="node">
<title>node00220</title>
<ellipse fill="none" stroke="black" cx="260" cy="-18" rx="27" ry="18"/>
<text text-anchor="middle" x="260" y="-14.3" font-family="Times New Roman,serif" font-size="14.00">3</text>
</g>
<!-- node0022&#45;&gt;node00220 -->
<g id="edge9" class="edge">
<title>node0022&#45;&gt;node00220</title>
<path fill="none" stroke="black" d="M260,-71.7C260,-63.98 260,-54.71 260,-46.11"/>
<polygon fill="black" stroke="black" points="263.5,-46.1 260,-36.1 256.5,-46.1 263.5,-46.1"/>
</g>
</g>
</svg>
